<svg width="150" height="150" viewBox="0 0 34 29" fill="#000000" xmlns="http://www.w3.org/2000/svg">
<path d="M17.9199 0.000976562C18.0445 0.00386338 18.2168 0.0150986 18.4131 0.0498047C18.7936 0.11714 19.3361 0.284663 19.7764 0.71875C20.2339 1.1701 20.3955 1.76491 20.458 2.16211C20.4909 2.37176 20.501 2.55768 20.5029 2.69141C20.5039 2.7586 20.5034 2.81463 20.502 2.85547C20.5012 2.87579 20.5007 2.89345 20.5 2.90625V4.77148C19.9936 4.79808 19.4926 4.85959 19 4.95605V2.87598L19.002 2.81836C19.0021 2.81505 19.0027 2.80937 19.0029 2.80273C19.0036 2.78408 19.0045 2.75327 19.0039 2.71387C19.0027 2.63294 18.996 2.51955 18.9766 2.39551C18.934 2.1247 18.8454 1.90754 18.7236 1.78711C18.5844 1.64974 18.3766 1.5671 18.1523 1.52734C18.0463 1.50859 17.9517 1.50154 17.8857 1.5C17.8533 1.49925 17.8283 1.50053 17.8145 1.50098H17.8086L17.75 1.50293H2.1748C1.81108 1.50311 1.50002 1.80494 1.5 2.19531V25.3105C1.50015 25.589 1.65998 25.8198 1.88281 25.9307L3.26074 24.2734C3.41892 24.0832 3.66089 23.9829 3.90723 24.0059C4.15377 24.029 4.37313 24.1731 4.49316 24.3896L5.53809 26.2754L6.73926 24.3555L6.79492 24.2773C6.93625 24.1049 7.14874 24.003 7.375 24.0029C7.63356 24.0029 7.87368 24.1362 8.01074 24.3555L9.30762 26.4316L10.9209 24.3008L10.9775 24.2344C11.118 24.0877 11.313 24.003 11.5186 24.0029C11.7536 24.0029 11.9754 24.1133 12.1172 24.3008L13.7871 26.5098L15.2812 24.5332C16.2718 25.1667 17.3622 25.6356 18.5117 25.917L18.5566 25.957C18.5707 25.9517 18.584 25.9438 18.5977 25.9375C19.0102 26.0349 19.4293 26.111 19.8545 26.1592C20.0064 26.1764 20.1586 26.1886 20.3105 26.1992C19.973 26.9633 19.2164 27.5029 18.3252 27.5029C18.1427 27.5029 17.966 27.4361 17.8291 27.3154L16.166 25.8496L14.3857 28.2051C14.244 28.3923 14.022 28.5029 13.7871 28.5029C13.5524 28.5028 13.3311 28.3923 13.1895 28.2051L11.5186 25.9951L9.84863 28.2051C9.69979 28.4017 9.46316 28.5129 9.2168 28.502C8.97045 28.491 8.74506 28.3594 8.61426 28.1504L7.375 26.167L6.13574 28.1504C5.99495 28.3753 5.74574 28.5098 5.48047 28.5029C5.21509 28.4959 4.97251 28.3484 4.84375 28.1162L3.71289 26.0752L2.75195 27.2324C2.60946 27.4037 2.39758 27.5029 2.1748 27.5029C0.965763 27.5028 0.000212571 26.5121 0 25.3105V2.19531C1.67313e-05 0.993627 0.965639 0.00310298 2.1748 0.00292969H17.7188C17.7312 0.00223146 17.7474 0.0015936 17.7666 0.000976562C17.8052 -0.00026396 17.8573 -0.000466258 17.9199 0.000976562ZM20.7344 6.75977C22.9361 6.6769 25.0882 7.42967 26.7588 8.86621C28.4293 10.3027 29.4951 12.3175 29.7432 14.5068C29.9913 16.6962 29.4035 18.8988 28.0967 20.6729L32.9102 25.4844C33.0389 25.6044 33.1422 25.7494 33.2139 25.9102C33.2854 26.0708 33.324 26.2441 33.3271 26.4199C33.3303 26.5959 33.2974 26.7714 33.2314 26.9346C33.1655 27.0976 33.0677 27.2458 32.9434 27.3701C32.819 27.4945 32.6708 27.5923 32.5078 27.6582C32.3446 27.7241 32.1691 27.757 31.9932 27.7539C31.8174 27.7507 31.644 27.7122 31.4834 27.6406C31.3227 27.569 31.1776 27.4657 31.0576 27.3369L26.2441 22.5244C24.4703 23.8312 22.2683 24.42 20.0791 24.1719C17.89 23.9237 15.8758 22.8571 14.4395 21.1865C13.003 19.5158 12.2502 17.364 12.333 15.1621C12.4159 12.9602 13.3278 10.8706 14.8857 9.3125C16.4436 7.75456 18.5328 6.84267 20.7344 6.75977ZM21.0645 9.37402C19.4428 9.37402 17.887 10.0183 16.7402 11.165C15.5934 12.312 14.9492 13.8683 14.9492 15.4902C14.9493 17.1121 15.5935 18.6676 16.7402 19.8145C17.887 20.9613 19.4427 21.6055 21.0645 21.6055C22.6862 21.6054 24.2419 20.9613 25.3887 19.8145C26.5353 18.6676 27.1796 17.112 27.1797 15.4902C27.1797 13.8683 26.5355 12.3119 25.3887 11.165C24.2419 10.0182 22.6862 9.37411 21.0645 9.37402ZM21.3984 12.1787C22.5247 12.2916 23.3107 13.0251 23.3389 14.0293L23.3418 14.1318H22.2559L22.2461 14.043C22.2187 13.805 22.1146 13.6142 21.9531 13.4746C21.8128 13.3534 21.6249 13.2698 21.3984 13.2285V15.0361L21.582 15.085C21.9775 15.1864 22.4352 15.3532 22.7959 15.6475C23.1603 15.9449 23.4237 16.3726 23.4238 16.9824C23.4237 17.5184 23.2294 17.9905 22.8633 18.3389C22.5152 18.6699 22.0177 18.8805 21.3984 18.9375V19.6504H20.707V18.9404C20.1142 18.8859 19.6237 18.6917 19.2695 18.3691C18.896 18.0288 18.6821 17.5558 18.6523 16.9873L18.6465 16.8818H19.7744L19.7812 16.9746C19.8033 17.2575 19.9217 17.4704 20.1006 17.6211C20.2577 17.7534 20.4669 17.8376 20.707 17.8789V15.9482L20.4893 15.8877C19.9869 15.7461 19.5682 15.5392 19.2754 15.2461C18.98 14.9503 18.8174 14.5714 18.8174 14.1006C18.8176 13.0491 19.6268 12.3268 20.707 12.1875V11.4512H21.3984V12.1787ZM8.82422 16.6953C9.23824 16.6955 9.5742 17.0312 9.57422 17.4453C9.57385 17.8591 9.23802 18.1951 8.82422 18.1953H4.07422C3.66029 18.1952 3.32459 17.8592 3.32422 17.4453C3.32424 17.0312 3.66007 16.6954 4.07422 16.6953H8.82422ZM21.3984 17.875C21.9573 17.7726 22.3057 17.43 22.3057 16.9727C22.3056 16.7318 22.2043 16.5646 22.0283 16.4326C21.8714 16.315 21.6556 16.2265 21.3984 16.1475V17.875ZM20.707 13.2383C20.2133 13.3446 19.9406 13.6597 19.9404 14.0449L19.9453 14.1309C19.9674 14.3251 20.0689 14.4718 20.2148 14.5879C20.3522 14.6971 20.5277 14.7763 20.707 14.8379V13.2383ZM10.6602 12.8486C10.5355 13.3397 10.4459 13.8407 10.3916 14.3486H4.07422C3.66019 14.3486 3.32443 14.0126 3.32422 13.5986C3.32436 13.1846 3.66015 12.8487 4.07422 12.8486H10.6602ZM12.6318 8.84863C12.2589 9.32215 11.9263 9.82317 11.6396 10.3486H4.07422C3.66019 10.3486 3.32443 10.0126 3.32422 9.59863C3.32436 9.18458 3.66015 8.8487 4.07422 8.84863H12.6318Z" fill="white"/>
</svg>
